<svg xmlns="http://www.w3.org/2000/svg" viewBox="0 0 411.57 85.74"><defs><style>.cls-1{fill:#f59f1c;}.cls-2,.cls-3{fill:#164194;}.cls-2{fill-rule:evenodd;}</style></defs><title>Wasion_H_Color</title><g id="Camada_2" data-name="Camada 2"><g id="Marcas"><g id="Wasion_H_Color"><path class="cls-1" d="M253.75,58.18l4.85-4.93h5.32l-6.29,4.93Z"/><polygon class="cls-2" points="115.31 85.38 142.64 29.88 127.09 0 118.9 0 80.49 78 70.75 78 94.45 29.88 78.91 0 71.3 0 36.1 71.47 11.76 24.64 17.35 13.29 35.9 48.97 42.4 35.77 23.79 0 14.73 0 0 29.88 28.83 85.38 42.44 85.38 77.92 13.29 83.84 24.64 53.94 85.38 90.15 85.38 125.66 13.29 131.57 24.64 101.61 85.38 115.31 85.38"/><rect class="cls-3" x="304.95" y="0.24" width="14.21" height="39.58"/><path class="cls-2" d="M351.74,12.06V27.74c0,8.58-13.07,8.1-13.07,0V12.06c0-8.36,13.07-8.58,13.07,0M336.56.24h16.8c4.93,0,9,4.33,9,9.61V30.21c0,5.29-4,9.61-9,9.61h-16.8c-4.94,0-9-4.32-9-9.61V9.85C327.58,4.57,331.62.24,336.56.24Z"/><polygon class="cls-2" points="370.75 39.82 370.75 0.18 378.08 0.18 404.25 19.31 404.25 0.18 411.57 0.18 411.57 39.82 404.25 39.82 378.08 19.31 378.08 39.82 370.75 39.82"/><path class="cls-2" d="M180.26,39.79c6.82.12,10.87.29,17.28.15,7.43-.16,17-3,17.26-10.49V.28H203.45V28.53c-.54,3.94-2.51,5.63-6.45,6.09a38.91,38.91,0,0,1-5.24-.09V.28H180.07V28.63c0,5.76-3.91,6-11.35,5.9V.28H157.38V39.83h20.94l1.81-1.5Z"/><path class="cls-2" d="M296.53,10.75h-8.17c-.09-5.13-4.93-3.57-6.89-3.72a2.24,2.24,0,0,0-1.91.72,3.2,3.2,0,0,0-.68,2.19,4.62,4.62,0,0,0,.68,2.86c4,5.62,15.54,6.42,16.81,16.74.57,4.6-1.43,9.32-5.65,10a106,106,0,0,1-18.51.07,6.63,6.63,0,0,1-4.87-3.93,10.12,10.12,0,0,1-1.39-6h8.17v.67c0,1.41.09,2.4.5,2.73,1.13.93,5.79.6,6.72.6a2.62,2.62,0,0,0,2.8-3.05c-.81-3.93-5.21-5.17-7.46-6.74-3.2-2.22-6-3.84-7.09-4.58a8.39,8.39,0,0,1-2.74-3,9.67,9.67,0,0,1-1-4.95c.05-2.89.6-5,1.67-6.35s3-3.63,5.37-4.19c3.26-.77,14.22-.69,18,.1,2.6.55,3.76,2.92,4.57,4.18a17.6,17.6,0,0,1,1.15,5.76"/><path class="cls-2" d="M246.25,23.86H234.09v16H223.22V7.67c1.55-3,4.48-6.51,8.8-7.39h15.53c4.66.18,7.93,3.7,9.83,7.39v32.2H246.25Zm-12.16-4.75h12.16V9.25c-3.62-3.42-7.85-3.92-12.16-.26Z"/><path class="cls-1" d="M157,85.38,168.3,60.23h4.6l11.36,25.15h-4.93l-9.7-22.67h1.87l-9.74,22.67Zm5.21-5.82,1.3-3.67H177l1.26,3.67Z"/><path class="cls-1" d="M200.72,85.38V60.23h3.85l11,18.36h-2l10.82-18.36h3.84l.07,25.15h-4.49V67.16h.9l-9.13,15.38h-2.12L204.1,67.16h1.08V85.38Z"/><path class="cls-1" d="M252.21,81.43H266.4v3.95H247.53V60.23H265.9v4H252.21Zm-.36-10.75h12.5v3.85h-12.5Z"/><path class="cls-1" d="M283.74,85.38V60.23h10.34a14.07,14.07,0,0,1,5.74,1.06,8.16,8.16,0,0,1,3.68,3.07,8.73,8.73,0,0,1,1.29,4.81,8.5,8.5,0,0,1-1.29,4.75,8.38,8.38,0,0,1-3.68,3,13.9,13.9,0,0,1-5.74,1.08h-7.72L288.41,76v9.41Zm4.67-8.91-2.05-2.26h7.51a7,7,0,0,0,4.65-1.33,4.62,4.62,0,0,0,1.57-3.71,4.56,4.56,0,0,0-1.57-3.68,7.1,7.1,0,0,0-4.65-1.31h-7.51l2.05-2.3Zm11.78,8.91-6.36-9.13h5l6.39,9.13Z"/><path class="cls-1" d="M323,85.38V60.23h4.68V85.38Z"/><path class="cls-1" d="M359.21,85.74a14.71,14.71,0,0,1-5.35-.95,12.76,12.76,0,0,1-4.26-2.71,12.63,12.63,0,0,1-2.82-4.1,13.76,13.76,0,0,1,0-10.35,12.53,12.53,0,0,1,2.84-4.1,12.84,12.84,0,0,1,4.27-2.71,14.76,14.76,0,0,1,5.36-1,14.49,14.49,0,0,1,5.64,1.06,11.06,11.06,0,0,1,4.31,3.14l-3,2.84a9.43,9.43,0,0,0-3.09-2.21,9,9,0,0,0-3.63-.74,9.78,9.78,0,0,0-3.61.65,8.33,8.33,0,0,0-4.72,4.64,9.5,9.5,0,0,0,0,7.11,8.47,8.47,0,0,0,1.88,2.8A8.33,8.33,0,0,0,355.85,81a9.78,9.78,0,0,0,3.61.64,9,9,0,0,0,3.63-.73,9.14,9.14,0,0,0,3.09-2.25l3,2.84a11.31,11.31,0,0,1-4.31,3.16A14.41,14.41,0,0,1,359.21,85.74Z"/><path class="cls-1" d="M384.3,85.38l11.32-25.15h4.6l11.35,25.15h-4.92L397,62.71h1.87l-9.74,22.67Zm5.21-5.82,1.29-3.67h13.55l1.26,3.67Z"/></g></g></g></svg>